<?xml version="1.0" encoding="utf-8"?>
<!-- Generator: Adobe Illustrator 24.0.0, SVG Export Plug-In . SVG Version: 6.00 Build 0)  -->
<svg version="1.1" id="Layer_1" xmlns="http://www.w3.org/2000/svg" xmlns:xlink="http://www.w3.org/1999/xlink" x="0px" y="0px"
	 viewBox="0 0 536.9 97.5" style="enable-background:new 0 0 536.9 97.5;" xml:space="preserve">
<style type="text/css">
	.st0{fill:#2473D5;}
</style>
<title>logo</title>
<path class="st0" d="M48.6,1.2c26.3-0.1,47.7,21.2,47.7,47.5C96.4,75,75.1,96.3,48.8,96.4C22.5,96.5,1.2,75.2,1.1,48.9c0,0,0,0,0,0
	C1,22.7,22.2,1.3,48.4,1.2C48.5,1.2,48.5,1.2,48.6,1.2z M48.6,75.2c14.6,0.1,26.5-11.7,26.6-26.3c0.1-14.6-11.7-26.5-26.3-26.6
	C34.2,22.3,22.3,34,22.3,48.7c0,0.1,0,0.2,0,0.3C22.4,63.4,34.1,75.1,48.6,75.2z"/>
<path class="st0" d="M487.5,1.2c26.3-0.1,47.7,21.2,47.7,47.5s-21.2,47.7-47.5,47.7S440.1,75.2,440,48.9c0,0,0,0,0,0
	c-0.1-26.2,21.1-47.6,47.3-47.7C487.4,1.2,487.4,1.2,487.5,1.2z M487.5,75.2c14.6,0.1,26.5-11.7,26.6-26.3
	c0.1-14.6-11.7-26.5-26.3-26.6S461.2,34,461.2,48.7c0,0.1,0,0.2,0,0.3C461.3,63.4,473,75.1,487.5,75.2z"/>
<path class="st0" d="M324.8,15.1c-17.1-17.3-44.6-18.7-63.4-3.3c4.7,5.6,8.3,12.1,10.5,19c0.2-0.2,0.4-0.4,0.6-0.6
	c10.3-10.4,27-10.5,37.4-0.2c10.4,10.3,10.5,27,0.2,37.4c-10.3,10.4-27,10.5-37.4,0.2c-0.1-0.1-0.1-0.1-0.2-0.2
	c-0.2-0.2-0.4-0.4-0.6-0.6c-4.5-4.8-7-11.1-7-17.7c0-0.2,0-0.4,0-0.6c-0.1-10.8-3.9-21.2-10.7-29.6c-1.1-1.3-2.2-2.6-3.5-3.8
	c-1.2-1.2-2.4-2.3-3.6-3.3c-20.5-16.5-50.4-13.2-66.9,7.2s-13.2,50.4,7.2,66.9c17.4,14,42.3,14,59.7,0c-4.7-5.6-8.4-12-10.7-18.9
	c-0.2,0.2-0.4,0.4-0.5,0.6c-10.3,10.3-27.1,10.3-37.4,0s-10.3-27.1,0-37.4c10.3-10.3,27-10.3,37.3-0.1c0.2,0.2,0.4,0.4,0.6,0.7
	c4.2,4.5,6.7,10.4,7.1,16.6c0.1,1.1,0.1,2.1,0,3.2c0.4,10.4,4.1,20.3,10.7,28.3c1,1.3,2.1,2.5,3.3,3.7c1.2,1.2,2.5,2.4,3.8,3.4
	c20.5,16.5,50.4,13.2,66.8-7.3C343.5,59.6,342,32.2,324.8,15.1z"/>
<path class="st0" d="M106.2,5c0-1.4,1.1-2.5,2.5-2.5h54.8c1.4,0,2.5,1.1,2.5,2.5c0,0,0,0,0,0v14.4c0,1.4-1.1,2.5-2.5,2.5
	c0,0,0,0,0,0h-36.6V41H157c1.4,0,2.5,1.1,2.5,2.5v14.4c0,1.4-1.1,2.5-2.5,2.5h-30.2v32.1c0,1.4-1.1,2.5-2.5,2.5h-15.6
	c-1.4,0-2.5-1.1-2.5-2.5L106.2,5z"/>
<path class="st0" d="M348.9,4.9c0-1.3,1-2.5,2.4-2.5h32.3c25.6-0.4,46.6,20,47,45.6c0.4,25.6-20,46.6-45.6,47c-0.5,0-0.9,0-1.4,0
	h-32.3c-1.3-0.1-2.4-1.2-2.4-2.5V4.9z M382.3,75.4c15,0,25.8-11.8,25.8-26.8s-10.9-26.7-25.8-26.7h-12.7v53.6H382.3z"/>
</svg>
